<svg xmlns="http://www.w3.org/2000/svg" viewBox="0 0 1200 630" role="img" aria-label="CryptoPilot AI †∆:Ň•»Ô">
  <rect width="1200" height="630" fill="#FCFCF9" />
  <g transform="translate(600 315)">
    <g transform="translate(-200 -200) scale(1.05)">
      <path
        fill="#111111"
        d="M161.941620,314.119446 C131.599670,295.747314 112.360001,269.499481 106.592880,234.959122 C98.962646,189.260208 114.819237,151.737091 150.623489,122.781143 C176.475922,101.873512 206.433517,94.379982 239.154114,98.736008 C266.470093,102.372528 288.970856,115.735939 307.902008,135.392319 C312.852142,140.532104 312.151978,146.077774 306.524200,150.268219 C304.266022,151.949661 302.155640,153.854370 300.120819,155.806320 C294.091034,161.590500 289.095184,161.732819 283.325378,155.663864 C272.298645,144.065536 258.671875,137.328934 243.456223,133.069244 C202.874893,121.708313 155.725082,144.821518 141.575699,189.860016 C126.689369,237.244293 155.790878,286.831665 204.452408,296.488434 C213.703430,298.324280 222.931290,298.784912 232.171906,296.641052 C237.021851,295.515808 240.394897,297.408081 242.321884,301.705292 C244.565430,306.708405 246.597626,311.819611 248.446838,316.982300 C250.089920,321.569427 246.813126,327.207642 242.038437,328.065186 C213.789764,333.138916 187.024002,329.458832 161.941620,314.119446z"
      />
      <path
        fill="#111111"
        d="M271.801544,275.195831 C270.694855,267.759033 265.471191,265.419067 259.549805,263.422638 C249.937592,260.181763 240.475708,256.497040 230.928955,253.059174 C226.561401,251.486389 222.919617,249.034805 222.911545,244.008316 C222.903229,238.834839 226.403900,235.972336 231.065414,234.505295 C252.163345,227.865433 273.276215,221.273041 294.374237,214.633514 C303.892822,211.638000 313.415985,208.652359 322.881256,205.494965 C326.198151,204.388519 329.072571,204.432556 331.603455,207.037994 C334.256622,209.769318 334.370117,212.951157 333.134583,216.318314 C322.310913,245.815796 311.490723,275.314606 300.634247,304.800049 C298.634827,310.230347 295.227936,312.614288 290.220612,312.251129 C285.019012,311.873871 283.127045,308.374512 281.693634,303.868103 C278.669464,294.360504 275.208221,284.991943 271.801544,275.195831z"
      />
    </g>
  </g>
</svg>
